<svg width="1080" height="1200" viewBox="0 0 1080 1200" fill="none" xmlns="http://www.w3.org/2000/svg">
<rect width="1080" height="1200" fill="white"/>
<path d="M506.127 709.075L326.001 399.484L550.869 399.484L684.418 628.785C710.923 674.294 715.284 745.139 674.031 777.877C616.368 823.639 543.147 772.705 506.127 709.075Z" fill="#FF0000"/>
<path d="M462.679 728.499L477.645 754.272C495.634 785.251 473.219 824.062 437.396 823.963L326.001 823.654L413.707 723.727C427.371 708.159 452.278 710.586 462.679 728.499Z" fill="#0047FF"/>
<path d="M354.621 718.857L326 751.696L326 492.742L369.269 567.665C397.191 616.016 391.306 676.766 354.621 718.857Z" fill="#0047FF"/>
<path d="M735.024 621.512L605.784 399.484C648.62 405.135 687.752 428.465 709.726 465.667C714.609 473.935 719.215 482.105 723.71 490.505C745.145 530.565 747.297 577.767 735.024 621.512Z" fill="#0047FF"/>
</svg>
